<svg preserveAspectRatio="none" overflow="visible" style="display: block;" width="17.9687" height="17.8917" viewBox="0 0 17.9687 17.8917" fill="none" xmlns="http://www.w3.org/2000/svg">
<g id="Group">
<path id="Vector" d="M8.12499 16.25C3.64167 16.25 0 12.6083 0 8.12498C0 3.64167 3.64167 0 8.12499 0C12.6083 0 16.25 3.64167 16.25 8.12498C16.25 12.6083 12.6083 16.25 8.12499 16.25ZM8.12499 1.25C4.33333 1.25 1.25 4.33333 1.25 8.12498C1.25 11.9167 4.33333 15 8.12499 15C11.9167 15 15 11.9167 15 8.12498C15 4.33333 11.9167 1.25 8.12499 1.25Z" fill="#3366CC"/>
<path id="Vector_2" d="M15.7502 17.8917C15.5918 17.8917 15.4502 17.8667 15.3418 17.8333C14.9668 17.725 14.3002 17.35 14.0918 16.1167C13.9835 15.4583 14.1502 14.85 14.5668 14.4333C14.9752 14.0167 15.5752 13.8417 16.2252 13.95C17.0585 14.075 17.6668 14.5 17.8835 15.1083C18.1002 15.7167 17.9002 16.4333 17.3252 17.0583C16.7252 17.725 16.1585 17.8917 15.7502 17.8917ZM15.3168 15.9083C15.3918 16.3583 15.5585 16.6 15.6918 16.6333C15.8168 16.6667 16.0835 16.5583 16.3918 16.2167C16.6835 15.9 16.7418 15.65 16.6918 15.525C16.6502 15.4 16.4502 15.2417 16.0168 15.1833C15.7668 15.15 15.5668 15.1833 15.4418 15.3167C15.3168 15.4417 15.2668 15.6583 15.3168 15.9083Z" fill="#3366CC"/>
</g>
</svg>
