<svg preserveAspectRatio="none" overflow="visible" style="display: block;" width="17.3739" height="17.3837" viewBox="0 0 17.3739 17.3837" fill="none" xmlns="http://www.w3.org/2000/svg">
<g id="Group">
<path id="Vector" d="M11.2318 11.2754C11.1735 11.2754 11.1152 11.2754 11.0485 11.2587C10.5985 11.1837 10.2568 10.8421 10.1818 10.4004L9.69851 7.68374L6.98185 7.20038C6.53184 7.12538 6.19851 6.78372 6.12351 6.33372C6.04851 5.88372 6.25684 5.45038 6.65684 5.23372L9.07351 3.90038L8.71518 1.20872C8.65685 0.750382 8.88185 0.325382 9.29018 0.117049C9.69851 -0.0912843 10.1735 -0.0162843 10.5068 0.300382L12.4902 2.21705L14.9318 1.02538C15.3485 0.825382 15.8235 0.900382 16.1485 1.22538C16.4735 1.55038 16.5568 2.02538 16.3485 2.44205L15.1568 4.88372L17.0735 6.86705C17.3902 7.20038 17.4652 7.67541 17.2568 8.08374C17.0485 8.49207 16.6235 8.71708 16.1735 8.65874L13.4818 8.30041L12.1485 10.7171C11.9568 11.0671 11.6068 11.2671 11.2235 11.2671L11.2318 11.2754ZM7.73185 6.05872L10.0485 6.47538C10.4818 6.55038 10.8318 6.90038 10.9068 7.33374L11.3235 9.65041L12.4568 7.58374C12.6652 7.20038 13.0902 6.98372 13.5235 7.04205L15.8068 7.34208L14.1735 5.65872C13.8652 5.34205 13.7902 4.85872 13.9818 4.45038L14.9902 2.38372L12.9235 3.39205C12.5235 3.59205 12.0402 3.50872 11.7235 3.20038L10.0402 1.56705L10.3402 3.85038C10.3985 4.28372 10.1818 4.71705 9.79851 4.92538L7.74018 6.05872H7.73185Z" fill="#2D3139"/>
<path id="Vector_2" d="M4.32332 17.3837C3.93165 17.3837 3.55665 17.2337 3.27331 16.9421L0.439981 14.1087C0.106648 13.7754 -0.0516851 13.3171 0.0149816 12.8504C0.0816483 12.3837 0.356648 11.9837 0.764982 11.7504L7.22335 8.11707C7.81502 7.78374 8.53168 7.88374 9.01501 8.36707C9.49835 8.85041 9.59001 9.56707 9.25668 10.1587L5.62332 16.6171C5.38998 17.0337 4.98998 17.3004 4.52331 17.3671C4.45665 17.3754 4.38165 17.3837 4.31498 17.3837H4.32332ZM7.96501 9.17541C7.96501 9.17541 7.88168 9.18374 7.84001 9.20874L1.38165 12.8421C1.28998 12.8921 1.26498 12.9754 1.25665 13.0254C1.24831 13.0754 1.25665 13.1587 1.32331 13.2337L4.15665 16.0671C4.23165 16.1421 4.31498 16.1421 4.36498 16.1337C4.40665 16.1337 4.49832 16.1004 4.54832 16.0087L8.18168 9.55041C8.26501 9.40874 8.19001 9.30041 8.14001 9.25041C8.10668 9.21708 8.04835 9.17541 7.97335 9.17541H7.96501Z" fill="#2D3139"/>
</g>
</svg>
