<svg preserveAspectRatio="none" overflow="visible" style="display: block;" width="16" height="16" viewBox="0 0 16 16" fill="none" xmlns="http://www.w3.org/2000/svg">
<g id="fluent:plug-disconnected-16-regular" clip-path="url(#clip0_0_101)">
<path id="Vector" d="M15.354 0.646C15.2602 0.552264 15.1331 0.499607 15.0005 0.499607C14.8679 0.499607 14.7408 0.552264 14.647 0.646L12.577 2.716C11.207 1.717 9.207 1.873 7.937 3.144L7.807 3.275C7.69089 3.39108 7.59879 3.52889 7.53595 3.68057C7.47311 3.83225 7.44077 3.99482 7.44077 4.159C7.44077 4.32318 7.47311 4.48575 7.53595 4.63743C7.59879 4.78911 7.69089 4.92692 7.807 5.043L10.988 8.225C11.231 8.469 11.551 8.591 11.872 8.591C12.193 8.591 12.513 8.469 12.756 8.225L12.976 8.005C13.3089 7.67461 13.5714 7.28016 13.7475 6.84549C13.9237 6.41081 14.0099 5.94493 14.001 5.476C13.9922 4.73113 13.7431 4.00901 13.291 3.417L15.354 1.354C15.4006 1.30755 15.4375 1.25238 15.4627 1.19163C15.4879 1.13089 15.5009 1.06577 15.5009 1C15.5009 0.934233 15.4879 0.869111 15.4627 0.808366C15.4375 0.747621 15.4006 0.692446 15.354 0.646ZM12.268 7.297L12.048 7.517C12.0248 7.54028 11.9972 7.55875 11.9668 7.57136C11.9364 7.58396 11.9039 7.59045 11.871 7.59045C11.8381 7.59045 11.8056 7.58396 11.7752 7.57136C11.7448 7.55875 11.7172 7.54028 11.694 7.517L8.512 4.335C8.48872 4.31178 8.47025 4.28419 8.45764 4.25382C8.44504 4.22344 8.43855 4.19088 8.43855 4.158C8.43855 4.12512 8.44504 4.09256 8.45764 4.06218C8.47025 4.03181 8.48872 4.00422 8.512 3.981L8.643 3.85C9.14649 3.34692 9.82826 3.06301 10.54 3.06C11.15 3.06 11.751 3.274 12.211 3.708C12.709 4.176 12.988 4.809 12.999 5.491C13.0055 5.82572 12.9442 6.15829 12.8187 6.46867C12.6933 6.77906 12.5063 7.06083 12.269 7.297M8.146 9.146L7.266 10.026L5.973 8.733L6.853 7.853C6.94408 7.7587 6.99448 7.6324 6.99334 7.5013C6.9922 7.3702 6.93961 7.24479 6.84691 7.15209C6.75421 7.05939 6.6288 7.0068 6.4977 7.00566C6.3666 7.00452 6.2403 7.05492 6.146 7.146L5.266 8.026L5.013 7.773C4.77805 7.53937 4.46013 7.40832 4.12879 7.40851C3.79746 7.40869 3.47969 7.54011 3.245 7.774L3.025 7.994C2.6921 8.32439 2.42964 8.71884 2.25347 9.15351C2.07729 9.58819 1.99107 10.0541 2 10.523C2.012 11.279 2.26 11.993 2.71 12.582L0.647 14.645C0.553246 14.7389 0.500628 14.8662 0.500722 14.9989C0.500816 15.1315 0.553613 15.2587 0.6475 15.3525C0.741387 15.4463 0.868672 15.4989 1.00135 15.4988C1.13404 15.4987 1.26125 15.4459 1.355 15.352L3.425 13.282C4.01751 13.7094 4.73042 13.9377 5.461 13.934C6.399 13.934 7.349 13.571 8.065 12.854L8.196 12.723C8.31211 12.6069 8.40421 12.4691 8.46705 12.3174C8.52989 12.1658 8.56223 12.0032 8.56223 11.839C8.56223 11.6748 8.52989 11.5122 8.46705 11.3606C8.40421 11.2089 8.31211 11.0711 8.196 10.955L7.974 10.733L8.854 9.853C8.94508 9.7587 8.99548 9.6324 8.99434 9.5013C8.9932 9.3702 8.94061 9.24479 8.84791 9.15209C8.7552 9.05939 8.6298 9.0068 8.4987 9.00566C8.3676 9.00452 8.2413 9.05492 8.147 9.146M7.49 12.018L7.358 12.149C6.364 13.144 4.762 13.208 3.79 12.291C3.54503 12.0624 3.3489 11.7866 3.21347 11.4802C3.07803 11.1737 3.0061 10.843 3.002 10.508C2.992 9.826 3.252 9.184 3.734 8.702L3.954 8.482C3.97726 8.4588 4.00486 8.44041 4.03524 8.42788C4.06561 8.41536 4.09815 8.40894 4.131 8.409C4.196 8.409 4.259 8.433 4.308 8.482L7.488 11.662C7.51128 11.6852 7.52975 11.7128 7.54236 11.7432C7.55496 11.7736 7.56145 11.8061 7.56145 11.839C7.56145 11.8719 7.55496 11.9044 7.54236 11.9348C7.52975 11.9652 7.51128 11.9928 7.488 12.016L7.49 12.018Z" fill="#707A8F"/>
</g>
<defs>
<clipPath id="clip0_0_101">
<rect width="16" height="16" fill="white"/>
</clipPath>
</defs>
</svg>
