<svg preserveAspectRatio="none" overflow="visible" style="display: block;" width="20" height="20" viewBox="0 0 20 20" fill="none" xmlns="http://www.w3.org/2000/svg">
<g id="Frame">
<path id="Vector" d="M12.7167 18.5419H7.28332C3.19165 18.5419 1.44165 16.7919 1.44165 12.7003V12.5919C1.44165 8.89192 2.89998 7.10856 6.16665 6.80022C6.49998 6.77522 6.81665 7.02522 6.84998 7.36689C6.88332 7.70856 6.63332 8.01689 6.28332 8.05022C3.66665 8.29189 2.69165 9.52525 2.69165 12.6003V12.7086C2.69165 16.1003 3.89165 17.3003 7.28332 17.3003H12.7167C16.1083 17.3003 17.3083 16.1003 17.3083 12.7086V12.6003C17.3083 9.50858 16.3167 8.27522 13.65 8.05022C13.3083 8.01689 13.05 7.71689 13.0833 7.37523C13.1167 7.03356 13.4083 6.77522 13.7583 6.80856C17.075 7.09189 18.5583 8.88358 18.5583 12.6086V12.7169C18.5583 16.7919 16.8083 18.5419 12.7167 18.5419Z" fill="#1B1D22"/>
<path id="Vector_2" d="M10 13.025C9.65833 13.025 9.375 12.7417 9.375 12.4V1.66667C9.375 1.325 9.65833 1.04167 10 1.04167C10.3417 1.04167 10.625 1.325 10.625 1.66667V12.4C10.625 12.75 10.3417 13.025 10 13.025Z" fill="#1B1D22"/>
<path id="Vector_3" d="M10.0001 13.9582C9.84175 13.9582 9.68342 13.8998 9.55842 13.7748L6.76674 10.9832C6.52507 10.7415 6.52507 10.3415 6.76674 10.0998C7.00841 9.85817 7.40841 9.85817 7.65007 10.0998L10.0001 12.4498L12.3501 10.0998C12.5917 9.85817 12.9918 9.85817 13.2334 10.0998C13.4751 10.3415 13.4751 10.7415 13.2334 10.9832L10.4417 13.7748C10.3167 13.8998 10.1584 13.9582 10.0001 13.9582Z" fill="#1B1D22"/>
</g>
</svg>
