<svg preserveAspectRatio="none" overflow="visible" style="display: block;" width="17.9167" height="17.9168" viewBox="0 0 17.9167 17.9168" fill="none" xmlns="http://www.w3.org/2000/svg">
<g id="Group">
<path id="Vector" d="M14.0417 13.75H3.87499C1.94166 13.75 0.833333 12.6417 0.833333 10.7083V0.625C0.833333 0.283333 1.11667 3.97364e-08 1.45833 3.97364e-08H16.4583C16.8 3.97364e-08 17.0833 0.283333 17.0833 0.625V10.7083C17.0833 12.6417 15.975 13.75 14.0417 13.75ZM2.08333 1.25V10.7083C2.08333 11.95 2.63333 12.5 3.87499 12.5H14.0333C15.275 12.5 15.825 11.95 15.825 10.7083V1.25H2.08333Z" fill="#2D3139"/>
<path id="Vector_2" d="M17.2917 1.25H0.625C0.283333 1.25 0 0.966667 0 0.625C0 0.283333 0.283333 0 0.625 0H17.2917C17.6333 0 17.9167 0.283333 17.9167 0.625C17.9167 0.966667 17.6333 1.25 17.2917 1.25Z" fill="#2D3139"/>
<path id="Vector_3" d="M5.62522 17.9167C5.39189 17.9167 5.17521 17.7917 5.06687 17.575C4.90854 17.2667 5.03357 16.8917 5.35023 16.7333L8.33358 15.2417V13.125C8.33358 12.7833 8.61692 12.5 8.95858 12.5C9.30025 12.5 9.58358 12.7833 9.58358 13.125V15.625C9.58358 15.8583 9.45025 16.075 9.23358 16.1833L5.90021 17.85C5.81687 17.8917 5.71689 17.9167 5.62522 17.9167Z" fill="#2D3139"/>
<path id="Vector_4" d="M12.2916 17.9168C12.1999 17.9168 12.1 17.8918 12.0167 17.8502L8.68333 16.1835C8.375 16.0252 8.24992 15.6502 8.39992 15.3418C8.55825 15.0335 8.93325 14.9085 9.24158 15.0585L12.5749 16.7252C12.8832 16.8835 13.0082 17.2585 12.8582 17.5668C12.7416 17.7918 12.5166 17.9168 12.2916 17.9168Z" fill="#2D3139"/>
<path id="Vector_5" d="M5.20828 8.75058C5.03328 8.75058 4.84995 8.67558 4.72495 8.52558C4.49995 8.25892 4.5416 7.86725 4.80827 7.64225L7.43325 5.45056C7.67492 5.25056 7.98325 5.16723 8.27492 5.21723C8.57492 5.26723 8.83325 5.45054 8.99158 5.71721L9.86658 7.17554L12.3082 5.14223C12.5749 4.92556 12.9666 4.95888 13.1916 5.22554C13.4166 5.49221 13.3749 5.88388 13.1083 6.10888L10.4832 8.30058C10.2416 8.50058 9.93325 8.58392 9.64158 8.53392C9.34158 8.48392 9.08325 8.30058 8.92492 8.03392L8.04992 6.57556L5.60828 8.60883C5.49162 8.7005 5.34994 8.75058 5.20828 8.75058Z" fill="#2D3139"/>
</g>
</svg>
